<mxfile host="app.diagrams.net" modified="2024-07-17T22:57:17.913Z" agent="Mozilla/5.0 (Macintosh; Intel Mac OS X 10_15_7) AppleWebKit/537.36 (KHTML, like Gecko) Chrome/126.0.0.0 Safari/537.36" etag="C6pNYy5-M6qO_n2Tqk1I" version="24.6.4" type="google">
  <diagram name="Page-1" id="ZSErbZXe2Rf1LN0xP0KH">
    <mxGraphModel grid="1" page="1" gridSize="10" guides="1" tooltips="1" connect="1" arrows="1" fold="1" pageScale="1" pageWidth="850" pageHeight="1100" math="0" shadow="0">
      <root>
        <mxCell id="0" />
        <mxCell id="1" parent="0" />
        <mxCell id="dLrA1R540Cg5Z49ZtYpb-1" value="Plant" style="text;html=1;align=center;verticalAlign=middle;resizable=0;points=[];autosize=1;strokeColor=none;fillColor=none;" vertex="1" parent="1">
          <mxGeometry x="325" y="10" width="50" height="30" as="geometry" />
        </mxCell>
        <mxCell id="dLrA1R540Cg5Z49ZtYpb-10" value="Shoot System" style="text;html=1;align=center;verticalAlign=middle;resizable=0;points=[];autosize=1;strokeColor=none;fillColor=none;" vertex="1" parent="1">
          <mxGeometry x="70" y="118" width="100" height="30" as="geometry" />
        </mxCell>
        <mxCell id="dLrA1R540Cg5Z49ZtYpb-11" value="Root System" style="text;html=1;align=center;verticalAlign=middle;resizable=0;points=[];autosize=1;strokeColor=none;fillColor=none;" vertex="1" parent="1">
          <mxGeometry x="550" y="118" width="90" height="30" as="geometry" />
        </mxCell>
        <mxCell id="dLrA1R540Cg5Z49ZtYpb-12" value="Primary Root" style="text;html=1;align=center;verticalAlign=middle;resizable=0;points=[];autosize=1;strokeColor=none;fillColor=none;" vertex="1" parent="1">
          <mxGeometry x="480" y="228" width="90" height="30" as="geometry" />
        </mxCell>
        <mxCell id="dLrA1R540Cg5Z49ZtYpb-13" value="Secondary Root" style="text;html=1;align=center;verticalAlign=middle;resizable=0;points=[];autosize=1;strokeColor=none;fillColor=none;" vertex="1" parent="1">
          <mxGeometry x="590" y="228" width="110" height="30" as="geometry" />
        </mxCell>
        <mxCell id="dLrA1R540Cg5Z49ZtYpb-14" value="Flower" style="text;html=1;align=center;verticalAlign=middle;resizable=0;points=[];autosize=1;strokeColor=none;fillColor=none;" vertex="1" parent="1">
          <mxGeometry x="-90" y="238" width="60" height="30" as="geometry" />
        </mxCell>
        <mxCell id="dLrA1R540Cg5Z49ZtYpb-15" value="Leaf" style="text;html=1;align=center;verticalAlign=middle;resizable=0;points=[];autosize=1;strokeColor=none;fillColor=none;" vertex="1" parent="1">
          <mxGeometry x="-5" y="238" width="50" height="30" as="geometry" />
        </mxCell>
        <mxCell id="dLrA1R540Cg5Z49ZtYpb-16" value="Fruit" style="text;html=1;align=center;verticalAlign=middle;resizable=0;points=[];autosize=1;strokeColor=none;fillColor=none;" vertex="1" parent="1">
          <mxGeometry x="95" y="238" width="50" height="30" as="geometry" />
        </mxCell>
        <mxCell id="dLrA1R540Cg5Z49ZtYpb-17" value="Bud" style="text;html=1;align=center;verticalAlign=middle;resizable=0;points=[];autosize=1;strokeColor=none;fillColor=none;" vertex="1" parent="1">
          <mxGeometry x="200" y="238" width="40" height="30" as="geometry" />
        </mxCell>
        <mxCell id="dLrA1R540Cg5Z49ZtYpb-18" value="Stem" style="text;html=1;align=center;verticalAlign=middle;resizable=0;points=[];autosize=1;strokeColor=none;fillColor=none;" vertex="1" parent="1">
          <mxGeometry x="275" y="238" width="50" height="30" as="geometry" />
        </mxCell>
        <mxCell id="dLrA1R540Cg5Z49ZtYpb-19" value="Seeds" style="text;html=1;align=center;verticalAlign=middle;resizable=0;points=[];autosize=1;strokeColor=none;fillColor=none;" vertex="1" parent="1">
          <mxGeometry x="90" y="308" width="60" height="30" as="geometry" />
        </mxCell>
        <mxCell id="dLrA1R540Cg5Z49ZtYpb-20" value="Nodes" style="text;html=1;align=center;verticalAlign=middle;resizable=0;points=[];autosize=1;strokeColor=none;fillColor=none;" vertex="1" parent="1">
          <mxGeometry x="270" y="308" width="60" height="30" as="geometry" />
        </mxCell>
        <mxCell id="dLrA1R540Cg5Z49ZtYpb-21" value="Veins" style="text;html=1;align=center;verticalAlign=middle;resizable=0;points=[];autosize=1;strokeColor=none;fillColor=none;" vertex="1" parent="1">
          <mxGeometry x="-5" y="308" width="50" height="30" as="geometry" />
        </mxCell>
        <mxCell id="dLrA1R540Cg5Z49ZtYpb-22" value="Petals" style="text;html=1;align=center;verticalAlign=middle;resizable=0;points=[];autosize=1;strokeColor=none;fillColor=none;" vertex="1" parent="1">
          <mxGeometry x="-90" y="308" width="60" height="30" as="geometry" />
        </mxCell>
        <mxCell id="dLrA1R540Cg5Z49ZtYpb-23" value="" style="endArrow=none;html=1;rounded=0;entryX=0.02;entryY=1.133;entryDx=0;entryDy=0;entryPerimeter=0;exitX=0.51;exitY=0.067;exitDx=0;exitDy=0;exitPerimeter=0;" edge="1" parent="1" source="dLrA1R540Cg5Z49ZtYpb-10" target="dLrA1R540Cg5Z49ZtYpb-1">
          <mxGeometry width="50" height="50" relative="1" as="geometry">
            <mxPoint x="400" y="220" as="sourcePoint" />
            <mxPoint x="450" y="170" as="targetPoint" />
          </mxGeometry>
        </mxCell>
        <mxCell id="dLrA1R540Cg5Z49ZtYpb-24" value="" style="endArrow=none;html=1;rounded=0;entryX=1.02;entryY=1.067;entryDx=0;entryDy=0;entryPerimeter=0;" edge="1" parent="1" target="dLrA1R540Cg5Z49ZtYpb-1">
          <mxGeometry width="50" height="50" relative="1" as="geometry">
            <mxPoint x="590" y="115" as="sourcePoint" />
            <mxPoint x="450" y="170" as="targetPoint" />
          </mxGeometry>
        </mxCell>
        <mxCell id="dLrA1R540Cg5Z49ZtYpb-25" value="" style="endArrow=none;html=1;rounded=0;exitX=0.456;exitY=0;exitDx=0;exitDy=0;exitPerimeter=0;entryX=0.411;entryY=1.133;entryDx=0;entryDy=0;entryPerimeter=0;" edge="1" parent="1" source="dLrA1R540Cg5Z49ZtYpb-12" target="dLrA1R540Cg5Z49ZtYpb-11">
          <mxGeometry width="50" height="50" relative="1" as="geometry">
            <mxPoint x="400" y="220" as="sourcePoint" />
            <mxPoint x="548" y="152" as="targetPoint" />
          </mxGeometry>
        </mxCell>
        <mxCell id="dLrA1R540Cg5Z49ZtYpb-26" value="" style="endArrow=none;html=1;rounded=0;exitX=0.527;exitY=-0.067;exitDx=0;exitDy=0;exitPerimeter=0;" edge="1" parent="1" source="dLrA1R540Cg5Z49ZtYpb-13">
          <mxGeometry width="50" height="50" relative="1" as="geometry">
            <mxPoint x="400" y="220" as="sourcePoint" />
            <mxPoint x="600" y="150" as="targetPoint" />
          </mxGeometry>
        </mxCell>
        <mxCell id="dLrA1R540Cg5Z49ZtYpb-27" value="" style="endArrow=none;html=1;rounded=0;entryX=0.49;entryY=1.167;entryDx=0;entryDy=0;entryPerimeter=0;exitX=0.5;exitY=-0.033;exitDx=0;exitDy=0;exitPerimeter=0;" edge="1" parent="1" source="dLrA1R540Cg5Z49ZtYpb-17" target="dLrA1R540Cg5Z49ZtYpb-10">
          <mxGeometry width="50" height="50" relative="1" as="geometry">
            <mxPoint x="400" y="220" as="sourcePoint" />
            <mxPoint x="450" y="170" as="targetPoint" />
          </mxGeometry>
        </mxCell>
        <mxCell id="dLrA1R540Cg5Z49ZtYpb-28" value="" style="endArrow=none;html=1;rounded=0;exitX=0.44;exitY=-0.067;exitDx=0;exitDy=0;exitPerimeter=0;" edge="1" parent="1" source="dLrA1R540Cg5Z49ZtYpb-18">
          <mxGeometry width="50" height="50" relative="1" as="geometry">
            <mxPoint x="230" y="232" as="sourcePoint" />
            <mxPoint x="130" y="150" as="targetPoint" />
          </mxGeometry>
        </mxCell>
        <mxCell id="dLrA1R540Cg5Z49ZtYpb-29" value="" style="endArrow=none;html=1;rounded=0;exitX=0.517;exitY=0;exitDx=0;exitDy=0;exitPerimeter=0;entryX=0.37;entryY=1.2;entryDx=0;entryDy=0;entryPerimeter=0;" edge="1" parent="1" source="dLrA1R540Cg5Z49ZtYpb-14" target="dLrA1R540Cg5Z49ZtYpb-10">
          <mxGeometry width="50" height="50" relative="1" as="geometry">
            <mxPoint x="400" y="220" as="sourcePoint" />
            <mxPoint x="450" y="170" as="targetPoint" />
          </mxGeometry>
        </mxCell>
        <mxCell id="dLrA1R540Cg5Z49ZtYpb-30" value="" style="endArrow=none;html=1;rounded=0;exitX=0.56;exitY=0;exitDx=0;exitDy=0;exitPerimeter=0;" edge="1" parent="1" source="dLrA1R540Cg5Z49ZtYpb-15">
          <mxGeometry width="50" height="50" relative="1" as="geometry">
            <mxPoint x="400" y="220" as="sourcePoint" />
            <mxPoint x="110" y="160" as="targetPoint" />
          </mxGeometry>
        </mxCell>
        <mxCell id="dLrA1R540Cg5Z49ZtYpb-31" value="" style="endArrow=none;html=1;rounded=0;exitX=0.52;exitY=-0.1;exitDx=0;exitDy=0;exitPerimeter=0;" edge="1" parent="1" source="dLrA1R540Cg5Z49ZtYpb-16">
          <mxGeometry width="50" height="50" relative="1" as="geometry">
            <mxPoint x="400" y="220" as="sourcePoint" />
            <mxPoint x="121" y="160" as="targetPoint" />
          </mxGeometry>
        </mxCell>
        <mxCell id="dLrA1R540Cg5Z49ZtYpb-32" value="" style="endArrow=none;html=1;rounded=0;entryX=0.5;entryY=1.1;entryDx=0;entryDy=0;entryPerimeter=0;" edge="1" parent="1" target="dLrA1R540Cg5Z49ZtYpb-18">
          <mxGeometry width="50" height="50" relative="1" as="geometry">
            <mxPoint x="300" y="310" as="sourcePoint" />
            <mxPoint x="450" y="170" as="targetPoint" />
          </mxGeometry>
        </mxCell>
        <mxCell id="dLrA1R540Cg5Z49ZtYpb-33" value="" style="endArrow=none;html=1;rounded=0;entryX=0.5;entryY=1.133;entryDx=0;entryDy=0;entryPerimeter=0;exitX=0.5;exitY=-0.067;exitDx=0;exitDy=0;exitPerimeter=0;" edge="1" parent="1" source="dLrA1R540Cg5Z49ZtYpb-19" target="dLrA1R540Cg5Z49ZtYpb-16">
          <mxGeometry width="50" height="50" relative="1" as="geometry">
            <mxPoint x="400" y="220" as="sourcePoint" />
            <mxPoint x="450" y="170" as="targetPoint" />
          </mxGeometry>
        </mxCell>
        <mxCell id="dLrA1R540Cg5Z49ZtYpb-34" value="" style="endArrow=none;html=1;rounded=0;entryX=0.56;entryY=1.033;entryDx=0;entryDy=0;entryPerimeter=0;exitX=0.54;exitY=0.067;exitDx=0;exitDy=0;exitPerimeter=0;" edge="1" parent="1" source="dLrA1R540Cg5Z49ZtYpb-21" target="dLrA1R540Cg5Z49ZtYpb-15">
          <mxGeometry width="50" height="50" relative="1" as="geometry">
            <mxPoint x="130" y="316" as="sourcePoint" />
            <mxPoint x="130" y="282" as="targetPoint" />
          </mxGeometry>
        </mxCell>
        <mxCell id="dLrA1R540Cg5Z49ZtYpb-35" value="" style="endArrow=none;html=1;rounded=0;exitX=0.5;exitY=0;exitDx=0;exitDy=0;exitPerimeter=0;entryX=0.5;entryY=1.167;entryDx=0;entryDy=0;entryPerimeter=0;" edge="1" parent="1" source="dLrA1R540Cg5Z49ZtYpb-22" target="dLrA1R540Cg5Z49ZtYpb-14">
          <mxGeometry width="50" height="50" relative="1" as="geometry">
            <mxPoint x="400" y="220" as="sourcePoint" />
            <mxPoint x="450" y="170" as="targetPoint" />
          </mxGeometry>
        </mxCell>
      </root>
    </mxGraphModel>
  </diagram>
</mxfile>
